<svg width="33" height="42" viewBox="0 0 33 42" fill="none" xmlns="http://www.w3.org/2000/svg">
<path d="M33 35.7956L30.6233 9.01088C30.5806 8.48083 30.136 8.07902 29.5974 8.07902H24.5876C24.579 3.62487 20.9541 0 16.5 0C12.0459 0 8.42098 3.62487 8.41243 8.07902H3.40259C2.87254 8.07902 2.42798 8.48083 2.37668 9.01088L0 35.7956C0 35.8298 0 35.8554 0 35.8896C0 38.8733 2.7443 41.3013 6.11269 41.3013H26.8873C30.2557 41.3013 33 38.8733 33 35.8896C33 35.8554 33 35.8298 33 35.7956ZM16.5 1.05181C19.8256 1.05181 23.5272 4.75337 23.5358 8.07902H9.46425C9.4728 4.75337 13.1744 1.05181 16.5 1.05181ZM26.8873 40.2409H6.11269C3.8899 40.2409 1.07746 37.7619 1.05181 35.9238L3.34301 9.13083H8.41243V13.7301C8.41243 14.2943 8.43575 14.756 9 14.756C9.56425 14.756 9.46425 14.2943 9.46425 13.7301V9.13083H23.5358V13.7301C23.5358 14.2943 23.4358 14.756 24 14.756C24.5642 14.756 24.5876 14.2943 24.5876 13.7301V9.13083H29.657L31.9482 35.9324C31.9225 37.7619 29.1101 40.2409 26.8873 40.2409Z" fill="#E3E1E1"/>
</svg>
