<svg width="33" height="42" viewBox="0 0 33 42" fill="none" xmlns="http://www.w3.org/2000/svg">
<path d="M33 35.7956L30.6233 9.01088C30.5806 8.48083 30.136 8.07902 29.5974 8.07902H24.5876C24.579 3.62487 20.9541 0 16.5 0C12.0459 0 8.42098 3.62487 8.41244 8.07902H3.40259C2.87254 8.07902 2.42798 8.48083 2.37668 9.01088L0 35.7956C0 35.8298 0 35.8554 0 35.8896C0 38.8733 2.7443 41.3013 6.11269 41.3013H26.8873C30.2557 41.3013 33 38.8733 33 35.8896C33 35.8554 33 35.8298 33 35.7956ZM16.5 2.05181C19.8256 2.05181 22.5272 4.75337 22.5358 8.07902H10.4642C10.4728 4.75337 13.1744 2.05181 16.5 2.05181ZM26.8873 39.2409H6.11269C3.8899 39.2409 2.07746 37.7619 2.05181 35.9238L4.34301 10.1308H8.41244V13.7301C8.41244 14.2943 8.87409 14.756 9.43834 14.756C10.0026 14.756 10.4642 14.2943 10.4642 13.7301V10.1308H22.5358V13.7301C22.5358 14.2943 22.9974 14.756 23.5617 14.756C24.1259 14.756 24.5876 14.2943 24.5876 13.7301V10.1308H28.657L30.9482 35.9324C30.9225 37.7619 29.1101 39.2409 26.8873 39.2409Z" fill="#E3E1E1"/>
</svg>
