<svg width="402" height="176" viewBox="0 0 402 176" fill="none" xmlns="http://www.w3.org/2000/svg">
<path d="M62.6795 0.231201H25.4882L29.48 25.2281H4.65716L8.24398 62.1819H33.0668L37.0586 87.1788H74.2499L70.2582 62.1819H95.081L91.4941 25.2281H66.6713L62.6795 0.231201Z" fill="#161F21"/>
<path d="M96.8353 62.182L93.2485 25.2283H159.473L163.059 62.182H96.8353Z" fill="#161F21"/>
<path d="M40.8769 115.872L37.29 88.918H167.721L171.308 120.872H79.6032L86.8637 170.431H48.1373L40.8769 115.872Z" fill="#161F21"/>
<path d="M176.84 25.2283H214.908L233.594 175.649H195.526L176.84 25.2283Z" fill="#161F21"/>
<path d="M291.891 59.3423H329.96L337.366 117.499L344.772 175.655H306.704L299.298 117.499L291.891 59.3423Z" fill="#161F21"/>
<path d="M381.828 25.2283L385.531 58.0515L235.54 58.0515L231.837 25.2283L381.828 25.2283Z" fill="#161F21"/>
</svg>
