<svg width="30" height="30" viewBox="0 0 30 30" fill="none" xmlns="http://www.w3.org/2000/svg">
<path d="M7.72266 0C0.560656 0 0 0.560656 0 7.72266V22.2773C0 29.4393 0.560656 30 7.72266 30H22.2773C29.4393 30 30 29.4393 30 22.2773V7.76953C30 0.563531 29.4365 0 22.2305 0H7.72266ZM7 1H23C28.565 1 29 1.435 29 7V23C29 28.565 28.565 29 23 29H7C1.435 29 1 28.565 1 23V7C1 1.435 1.435 1 7 1ZM16.0137 5.76953V18.4355C16.0137 20.1765 14.4991 21.0762 13.4121 21.0762C12.5931 21.0762 10.7324 20.436 10.7324 18.416C10.7324 16.296 12.4706 15.7559 13.4336 15.7559C13.9936 15.7559 14.2129 15.875 14.2129 15.875V12.4961C14.2129 12.4961 13.7925 12.4336 13.3125 12.4336C9.8635 12.4336 7.41016 15.224 7.41016 18.416C7.41016 21.113 9.52005 24.3789 13.373 24.3789C17.477 24.3789 19.3555 20.9555 19.3555 18.4355V12.1523C19.3555 12.1523 21.1857 13.4336 23.6387 13.4336V10.2324C20.8257 10.0314 19.3208 8.14153 19.2168 5.76953H16.0137Z" fill="#161F21"/>
</svg>
